<svg width="261" height="37" viewBox="0 0 261 37" fill="none" xmlns="http://www.w3.org/2000/svg">
<g clip-path="url(#clip0_332_42)">
<path fill-rule="evenodd" clip-rule="evenodd" d="M6.3743 1.84408C5.29182 2.88639 3.60794 4.40976 2.68582 5.29172L1.00195 6.85518V19.6836C1.00195 32.4318 1.00195 32.512 1.8038 32.071C2.60564 31.63 2.60564 31.3093 2.56555 20.4052L2.52546 9.18033L4.3697 7.37633C5.372 6.37411 6.29412 5.57234 6.3743 5.57234C6.45449 5.57234 7.21624 4.93092 8.01808 4.16923L9.50149 2.80621H29.3471H49.1927L51.1573 1.68373C52.2398 1.0824 53.1218 0.440977 53.1218 0.280621C53.1218 0.120266 43.0586 0 30.7904 0L8.37891 0L6.3743 1.84408Z" fill="url(#paint0_linear_332_42)"/>
<path fill-rule="evenodd" clip-rule="evenodd" d="M52.7614 3.80842L51.8794 4.44984V18.8417V33.2737H28.5859H5.29231L3.3278 34.3962C2.24531 34.9975 1.36328 35.6389 1.36328 35.7993C1.36328 35.9596 13.0702 36.0799 27.3831 36.0799C51.0776 36.0799 53.443 36.0398 53.9241 35.3984C54.3651 34.8772 54.4854 31.63 54.6057 18.962C54.7259 2.08461 54.766 2.44541 52.7614 3.80842Z" fill="#D2D3D4"/>
<path d="M14.9147 8.21824C13.7921 7.41646 13.3912 7.41646 12.2686 8.25833C11.587 8.73939 11.2262 8.77948 10.9055 8.45877C10.3041 7.85744 8.90085 7.89753 8.29947 8.49886C8.01882 8.77948 7.81836 10.0222 7.81836 11.3051V13.6302H11.8276H15.8368V11.2249C15.7967 9.22046 15.6764 8.77948 14.9147 8.21824ZM9.58241 11.4654C8.90085 11.2249 9.22159 10.0222 9.98334 10.0222C10.264 10.0222 10.5847 10.3029 10.705 10.6236C10.9856 11.3051 10.3843 11.7861 9.58241 11.4654ZM13.5114 11.5456C12.8299 11.6258 12.5893 11.4654 12.5893 10.824C12.5893 10.1826 12.7898 9.98215 13.5114 10.1024C13.9926 10.1826 14.3935 10.5033 14.3935 10.824C14.3935 11.1447 13.9926 11.4654 13.5114 11.5456Z" fill="#13AD53"/>
<path fill-rule="evenodd" clip-rule="evenodd" d="M7.77832 15.795C7.77832 16.7571 7.8986 16.7972 10.8253 16.9175C13.2309 16.9977 13.9926 17.1981 14.3133 17.7594C15.035 18.8418 14.0327 19.2427 10.705 19.2427C7.85851 19.2427 7.81841 19.2827 7.81841 20.2449C7.81841 21.2471 7.8585 21.2471 11.106 21.2471C15.2355 21.2471 15.9571 20.8061 15.9571 18.2805C15.9571 15.3941 15.1954 14.873 11.1461 14.873C7.8585 14.8329 7.77832 14.8329 7.77832 15.795Z" fill="#13AD53"/>
<path fill-rule="evenodd" clip-rule="evenodd" d="M7.77832 23.4119C7.77832 24.2538 7.97878 24.4141 9.30182 24.5344C10.5046 24.6146 10.8253 24.815 10.8253 25.4564C10.8253 26.0578 10.5046 26.2983 9.4221 26.4586C8.33961 26.619 7.97878 26.8595 7.8986 27.5811C7.77832 28.4631 7.8585 28.4631 11.8276 28.4631C15.7968 28.4631 15.8769 28.4631 15.7567 27.5811C15.6364 26.8595 15.3156 26.6591 14.1129 26.5388C12.8299 26.4186 12.6295 26.2582 12.6295 25.4163C12.6295 24.5344 12.7898 24.4542 14.2332 24.4542C15.6765 24.4542 15.8368 24.374 15.8368 23.452V22.4498H11.8276C7.81841 22.4498 7.77832 22.4498 7.77832 23.4119Z" fill="#13AD53"/>
<path d="M46.1861 9.14025L44.9031 8.01776H34.4792H24.0151L22.7322 9.42087L21.4492 10.824V17.8796C21.4492 23.8528 21.5695 25.1357 22.1308 26.0978C22.4916 26.7392 22.6921 27.1401 23.0128 27.3406C23.2133 27.4608 23.6543 27.5811 23.8547 27.6613C24.0953 27.7414 27.6234 28.0622 34.3589 28.0622H44.863L46.1861 27.0198L47.5091 25.9775V18.1602V10.3028L46.1861 9.14025ZM30.6303 24.2537V26.0577H27.6635C24.2958 26.0577 23.4137 25.5366 23.4137 23.6123V22.4497H27.022H30.6303V24.2537ZM23.3736 16.0355H26.4206H29.4677V18.2404V20.4453L26.581 20.325L23.6944 20.2048L23.5741 18.1201L23.3736 16.0355ZM30.6303 10.0222V11.7861C30.6303 14.1513 30.1091 14.5121 26.5409 14.3518L23.6142 14.2315L23.4939 12.7883C23.2935 10.5434 24.0953 10.0222 27.6635 10.0222H30.6303ZM37.9271 17.7192C37.8469 19.8039 37.6064 20.9263 37.2054 21.2871C36.8446 21.6079 36.6041 22.5299 36.6041 23.933V26.0577H34.5995H32.5948V23.8929C32.5948 22.3295 32.4345 21.6479 31.9935 21.4876C31.5524 21.3272 31.3921 20.5655 31.3921 18.2805C31.3921 16.1157 31.5524 15.1536 31.9935 14.7928C32.3944 14.4721 32.5948 13.55 32.5948 12.1469V10.0222H38.6087C44.5423 10.0222 44.6225 10.0222 45.264 10.9843C45.6248 11.5055 45.8253 12.4676 45.7852 13.0689L45.6649 14.1914L41.8561 14.3919L38.0474 14.5923L37.9271 17.7192ZM45.6649 16.236V18.2404V20.2448L42.7782 20.3651L39.8916 20.4854V18.2404V15.9954L42.7782 16.1157L45.6649 16.236ZM45.8653 23.5321C45.8653 25.4564 44.863 26.0577 41.6557 26.0577H38.769L38.6087 24.6947C38.3681 22.4898 38.4483 22.4497 42.3372 22.4497H45.9054V23.5321H45.8653Z" fill="#D2D3D4"/>
<path fill-rule="evenodd" clip-rule="evenodd" d="M64.1477 6.69485C62.9049 7.17591 62.5841 8.21822 62.5441 11.6258C62.5441 16.0756 63.0252 16.8774 67.7159 19.844C71.1238 22.0088 71.3643 22.2894 71.3643 23.5321V24.8551H66.9141H62.4639L62.5841 27.1802L62.7044 29.5054L69.8007 29.6256C75.8546 29.7058 76.9772 29.6256 77.4984 29.1045C78.0196 28.5833 78.1399 27.5811 78.1399 24.3339C78.1399 22.0488 78.0196 19.8841 77.8993 19.5233C77.7791 19.1625 75.7745 17.599 73.4491 16.0756C68.0367 12.4676 68.0367 11.9866 73.409 11.7059C75.5339 11.5857 77.3781 11.3852 77.5385 11.265C77.6989 11.1046 77.8993 9.98213 78.0196 8.77946L78.2602 6.53449L71.4846 6.57458C67.7961 6.45431 64.4685 6.57458 64.1477 6.69485ZM83.0712 9.02C82.7906 10.4632 82.5901 12.2672 82.5901 13.0289C82.5901 13.7906 82.3496 16.1157 82.0288 18.1602C81.7081 20.2048 81.3473 23.6123 81.1869 25.7771L80.9063 29.7058H84.1537H87.4012V23.8528C87.4012 18.3607 87.4413 18.04 88.203 18.04C88.7643 18.04 89.045 18.4008 89.2053 19.3228C89.3256 20.0444 89.5261 21.2471 89.6464 22.0488C89.7666 22.8506 90.0874 24.8551 90.3279 26.5789L90.809 29.7058H93.5353C95.2192 29.7058 96.3417 29.5054 96.5422 29.2247C96.8228 28.7838 97.745 23.5321 98.186 19.8039C98.3463 18.4809 98.5468 18.1201 99.1482 18.1201C99.8699 18.1201 99.9099 18.4809 99.9099 23.933V29.6657H103.117H106.325V26.5388C106.325 24.815 106.164 22.8105 105.924 22.0088C105.723 21.2471 105.322 18.4409 105.082 15.795C104.841 13.1491 104.521 9.98213 104.36 8.77946L104.12 6.57458L100.231 6.45431C96.7828 6.33405 96.3417 6.41422 96.1814 7.05565C95.58 9.26053 95.0989 11.5857 94.8984 13.2694C94.4574 16.5968 93.0141 16.677 92.5731 13.3897C92.2122 10.824 91.4906 7.09573 91.25 6.69485C91.1298 6.4944 89.3657 6.37414 87.3611 6.37414H83.6726L83.0712 9.02ZM109.813 7.25609C109.051 8.01778 108.971 8.45875 109.091 12.2271C109.211 15.9153 109.332 16.4765 110.093 17.1981C110.574 17.6391 111.096 18.04 111.256 18.04C111.416 18.04 112.218 18.5611 113.02 19.2426C113.822 19.9241 114.664 20.4453 114.784 20.4453C114.944 20.4453 115.265 20.6457 115.546 20.8462C115.827 21.0867 116.468 21.5678 116.989 21.9687C117.751 22.5299 117.911 22.9308 117.671 23.7727L117.47 24.8551H113.341C111.056 24.8551 109.131 24.9352 109.051 25.0154C108.971 25.0956 108.931 26.178 109.011 27.4207L109.131 29.6657H115.827C119.515 29.6657 122.923 29.5455 123.404 29.4252C124.286 29.1847 124.286 29.0243 124.286 24.2136V19.2426L121.8 17.4386C120.437 16.4364 119.074 15.4743 118.793 15.2338C118.513 15.0333 118.152 14.8329 117.992 14.8329C117.27 14.7928 115.827 13.1892 115.947 12.5478C116.067 11.9465 116.588 11.8262 119.635 11.7059C123.805 11.5857 124.246 11.265 124.246 8.2984V6.37414H117.43C111.096 6.41422 110.615 6.45431 109.813 7.25609ZM127.894 17.9999V29.6256H131.302H134.71V25.0555V20.4453H136.715H138.719V25.0555V29.6657H142.127H145.535L145.415 18.1201L145.294 6.61467L142.007 6.4944L138.719 6.37414L138.599 10.7037L138.479 15.0333H136.715H134.91L134.71 10.824L134.509 6.61467L131.222 6.4944L127.934 6.37414V17.9999H127.894ZM149.424 6.69485C149.263 6.8552 149.143 11.6659 149.143 17.4386C149.143 27.4608 149.183 27.9419 149.985 28.8239C150.787 29.7058 150.987 29.7058 158.885 29.5855L166.984 29.4653V18.04V6.61467L163.697 6.4944L160.409 6.37414V15.354C160.409 25.0956 160.449 24.815 158.204 24.815C155.959 24.815 155.999 25.0555 155.999 15.354V6.41422H152.872C151.108 6.41422 149.544 6.53449 149.424 6.69485ZM171.074 6.69485C170.913 6.8552 170.793 12.0667 170.793 18.3206V29.6657H178.932C188.955 29.6657 188.433 29.9864 188.433 24.1335C188.433 20.2449 188.393 20.0444 187.391 19.2426C186.83 18.8017 186.068 18.4008 185.747 18.4008C184.865 18.4008 185.306 17.0378 186.228 16.8774C188.113 16.5166 188.433 15.7148 188.433 11.5456C188.433 6.17369 188.794 6.37414 178.972 6.37414C174.762 6.41422 171.194 6.53449 171.074 6.69485ZM203.668 6.69485C202.185 7.25609 202.105 8.01778 202.065 18.04C202.065 26.2983 202.145 28.0221 202.666 28.7838C203.268 29.6657 203.508 29.6657 210.685 29.6657C217.54 29.6657 218.142 29.6256 218.863 28.8639C219.625 28.1023 219.665 27.541 219.665 18.04C219.665 8.53893 219.625 7.97769 218.863 7.216C218.102 6.45431 217.54 6.41422 211.166 6.45431C207.397 6.45431 203.989 6.57458 203.668 6.69485ZM223.715 17.9999V29.6657H227.122H230.53V26.0577V22.4497H231.693C232.655 22.4497 232.936 22.6903 233.297 23.6925C233.537 24.374 233.738 25.3361 233.738 25.8172C233.738 26.2983 233.898 26.8595 234.098 27.0599C234.299 27.2604 234.539 27.9018 234.579 28.423C234.7 29.3851 234.82 29.4252 238.268 29.5454L241.836 29.6657L241.636 27.7415C241.515 26.6991 241.235 25.7771 240.994 25.6969C240.754 25.6167 240.553 25.256 240.553 24.8952C240.553 24.5344 240.273 23.6925 239.952 23.0912C239.15 21.5678 239.19 21.207 240.353 20.0845C241.315 19.1625 241.355 18.962 241.355 13.6703C241.355 9.42088 241.195 8.01778 240.754 7.41644C240.192 6.65476 239.591 6.61467 231.933 6.4944L223.715 6.37414V17.9999ZM245.845 7.01556C244.963 7.61689 244.963 7.73715 244.963 17.9598C244.963 27.4608 245.003 28.3428 245.685 28.9441C246.327 29.5054 247.489 29.6256 253.703 29.6256H261V23.0511V16.4364H258.835C255.548 16.4364 255.588 16.4364 255.748 19.8841C255.949 24.4542 255.788 24.8551 253.583 24.8551H251.779V18.2404V11.6258H256.39H261V9.02V6.41422H253.864C248.091 6.41422 246.567 6.53449 245.845 7.01556ZM181.538 13.3095L181.417 14.9932H179.613C177.929 14.9932 177.809 14.913 177.689 13.8707C177.488 11.9866 177.809 11.5857 179.854 11.5857H181.698L181.538 13.3095ZM212.93 17.9999C212.93 21.4074 212.769 24.3339 212.569 24.5344C212.368 24.7348 211.486 24.8551 210.645 24.7749L209.081 24.6546L208.961 18.1201L208.88 11.5857L210.925 11.7059L212.97 11.8262L212.93 17.9999ZM234.459 14.3117L234.579 16.7972H232.575H230.57V14.4721C230.57 13.1892 230.691 11.9866 230.851 11.8663C231.011 11.7059 231.853 11.6258 232.775 11.7059L234.379 11.8262L234.459 14.3117ZM181.538 22.5299L181.417 24.6145H179.613H177.809L177.689 22.5299L177.568 20.4453H179.613H181.658L181.538 22.5299ZM192.042 27.2604V29.6657L195.089 29.5454L198.136 29.4252L198.216 27.1L198.296 24.7749H195.169H192.042V27.2604Z" fill="#fff"/>
</g>
<defs>
<linearGradient id="paint0_linear_332_42" x1="0.962703" y1="16.0927" x2="53.0821" y2="16.0927" gradientUnits="userSpaceOnUse">
<stop offset="6.92613e-08" stop-color="#00AE54"/>
<stop offset="1" stop-color="#9DCB3B"/>
</linearGradient>
<clipPath id="clip0_332_42">
<rect width="261" height="36.0799" fill="white"/>
</clipPath>
</defs>
</svg>
