<svg width="167" height="22" viewBox="0 0 167 22" fill="none" xmlns="http://www.w3.org/2000/svg">
<g clip-path="url(#clip0_507_44)">
<path fill-rule="evenodd" clip-rule="evenodd" d="M4.07908 1.12444C3.38646 1.76 2.30904 2.68889 1.71902 3.22667L0.641602 4.18V12.0022C0.641602 19.7756 0.641602 19.8244 1.15466 19.5556C1.66772 19.2867 1.66772 19.0911 1.64206 12.4422L1.61641 5.59778L2.79644 4.49778C3.43776 3.88667 4.02778 3.39778 4.07908 3.39778C4.13039 3.39778 4.61779 3.00667 5.13085 2.54222L6.08001 1.71111H18.7782H31.4763L32.7333 1.02667C33.4259 0.66 33.9903 0.268889 33.9903 0.171111C33.9903 0.0733333 27.5514 0 19.7017 0L5.36173 0L4.07908 1.12444Z" fill="white"/>
<path fill-rule="evenodd" clip-rule="evenodd" d="M33.759 2.32227L33.1946 2.71338V11.4889V20.2889H18.2903H3.38605L2.12906 20.9734C1.43643 21.3401 0.87207 21.7312 0.87207 21.8289C0.87207 21.9267 8.3627 22.0001 17.5208 22.0001C32.6816 22.0001 34.1951 21.9756 34.5029 21.5845C34.7851 21.2667 34.8621 19.2867 34.939 11.5623C35.016 1.27116 35.0416 1.49116 33.759 2.32227Z" fill="#D2D3D4"/>
<path d="M9.54348 5.01113C8.8252 4.52224 8.56868 4.52224 7.8504 5.03557C7.4143 5.32891 7.18342 5.35335 6.9782 5.15779C6.59341 4.79113 5.69556 4.81557 5.31076 5.18224C5.13119 5.35335 5.00293 6.11113 5.00293 6.89335V8.31113H7.56821H10.1335V6.84446C10.1078 5.62224 10.0309 5.35335 9.54348 5.01113ZM6.13165 6.99113C5.69556 6.84446 5.90078 6.11113 6.38818 6.11113C6.56775 6.11113 6.77298 6.28224 6.84993 6.47779C7.0295 6.89335 6.64471 7.18668 6.13165 6.99113ZM8.64563 7.04002C8.20954 7.08891 8.05562 6.99113 8.05562 6.60002C8.05562 6.20891 8.18388 6.08668 8.64563 6.16002C8.95347 6.20891 9.21 6.40446 9.21 6.60002C9.21 6.79557 8.95347 6.99113 8.64563 7.04002Z" fill="white"/>
<path fill-rule="evenodd" clip-rule="evenodd" d="M4.97656 9.63109C4.97656 10.2178 5.05352 10.2422 6.92618 10.3155C8.46535 10.3644 8.95275 10.4866 9.15798 10.8289C9.61973 11.4889 8.97841 11.7333 6.84922 11.7333C5.02787 11.7333 5.00222 11.7578 5.00222 12.3444C5.00222 12.9555 5.02787 12.9555 7.10575 12.9555C9.74799 12.9555 10.2097 12.6866 10.2097 11.1466C10.2097 9.38664 9.72234 9.06886 7.1314 9.06886C5.02787 9.04442 4.97656 9.04442 4.97656 9.63109Z" fill="white"/>
<path fill-rule="evenodd" clip-rule="evenodd" d="M4.97656 14.2756C4.97656 14.789 5.10483 14.8867 5.95137 14.9601C6.72096 15.009 6.92618 15.1312 6.92618 15.5223C6.92618 15.889 6.72096 16.0356 6.02833 16.1334C5.3357 16.2312 5.10483 16.3779 5.05352 16.8178C4.97656 17.3556 5.02787 17.3556 7.5675 17.3556C10.1071 17.3556 10.1584 17.3556 10.0815 16.8178C10.0045 16.3779 9.7993 16.2556 9.02971 16.1823C8.20882 16.109 8.08056 16.0112 8.08056 15.4979C8.08056 14.9601 8.18317 14.9112 9.10667 14.9112C10.0302 14.9112 10.1328 14.8623 10.1328 14.3001V13.689H7.5675C5.00222 13.689 4.97656 13.689 4.97656 14.2756Z" fill="white"/>
<path d="M29.5524 5.57336L28.7315 4.88892H22.0618H15.3664L14.5455 5.74447L13.7246 6.60003V10.9023C13.7246 14.5445 13.8016 15.3267 14.1607 15.9134C14.3916 16.3045 14.5198 16.5489 14.7251 16.6711C14.8533 16.7445 15.1355 16.8178 15.2638 16.8667C15.4177 16.9156 17.6751 17.1111 21.9848 17.1111H28.7059L29.5524 16.4756L30.399 15.84V11.0734V6.28225L29.5524 5.57336ZM19.5991 14.7889V15.8889H17.7008C15.546 15.8889 14.9816 15.5711 14.9816 14.3978V13.6889H17.2904H19.5991V14.7889ZM14.9559 9.77781H16.9056H18.8552V11.1223V12.4667L17.0082 12.3934L15.1612 12.32L15.0842 11.0489L14.9559 9.77781ZM19.5991 6.11114V7.18669C19.5991 8.62892 19.2656 8.84892 16.9825 8.75114L15.1099 8.67781L15.0329 7.79781C14.9046 6.42892 15.4177 6.11114 17.7008 6.11114H19.5991ZM24.2679 10.8045C24.2166 12.0756 24.0627 12.76 23.8062 12.98C23.5753 13.1756 23.4214 13.7378 23.4214 14.5934V15.8889H22.1387H20.8561V14.5689C20.8561 13.6156 20.7535 13.2 20.4713 13.1023C20.1891 13.0045 20.0865 12.54 20.0865 11.1467C20.0865 9.82669 20.1891 9.24003 20.4713 9.02003C20.7278 8.82447 20.8561 8.26225 20.8561 7.40669V6.11114H24.704C28.5006 6.11114 28.5519 6.11114 28.9624 6.69781C29.1933 7.01558 29.3215 7.60225 29.2959 7.96892L29.2189 8.65336L26.7819 8.77558L24.3449 8.89781L24.2679 10.8045ZM29.2189 9.90003V11.1223V12.3445L27.3719 12.4178L25.5249 12.4911V11.1223V9.75336L27.3719 9.8267L29.2189 9.90003ZM29.3472 14.3489C29.3472 15.5223 28.7059 15.8889 26.6536 15.8889H24.8066L24.704 15.0578C24.5501 13.7134 24.6014 13.6889 27.0897 13.6889H29.3728V14.3489H29.3472Z" fill="white"/>
<path fill-rule="evenodd" clip-rule="evenodd" d="M41.0442 4.08225C40.249 4.37559 40.0438 5.01114 40.0181 7.08892C40.0181 9.80225 40.3259 10.2911 43.3273 12.1C45.5078 13.42 45.6617 13.5911 45.6617 14.3489V15.1556H42.8143H39.9668L40.0438 16.5734L40.1207 17.9911L44.6613 18.0645C48.5348 18.1134 49.2531 18.0645 49.5866 17.7467C49.9201 17.4289 49.9971 16.8178 49.9971 14.8378C49.9971 13.4445 49.9201 12.1245 49.8431 11.9045C49.7662 11.6845 48.4835 10.7311 46.9957 9.80225C43.5325 7.60225 43.5325 7.30892 46.97 7.13781C48.3296 7.06448 49.5097 6.94225 49.6123 6.86892C49.7149 6.77114 49.8431 6.0867 49.9201 5.35336L50.074 3.98448L45.7387 4.00892C43.3786 3.93559 41.2494 4.00892 41.0442 4.08225ZM53.1524 5.50003C52.9728 6.38003 52.8445 7.48003 52.8445 7.94448C52.8445 8.40892 52.6906 9.8267 52.4854 11.0734C52.2802 12.32 52.0493 14.3978 51.9467 15.7178L51.7671 18.1134H53.845H55.9229V14.5445C55.9229 11.1956 55.9485 11 56.4359 11C56.7951 11 56.9746 11.22 57.0772 11.7823C57.1542 12.2223 57.2825 12.9556 57.3594 13.4445C57.4364 13.9334 57.6416 15.1556 57.7955 16.2067L58.1034 18.1134H59.8477C60.9252 18.1134 61.6434 17.9911 61.7717 17.82C61.9513 17.5511 62.5413 14.3489 62.8235 12.0756C62.9261 11.2689 63.0544 11.0489 63.4391 11.0489C63.9009 11.0489 63.9265 11.2689 63.9265 14.5934V18.0889H65.9788H68.031V16.1823C68.031 15.1311 67.9284 13.9089 67.7745 13.42C67.6462 12.9556 67.3897 11.2445 67.2358 9.63114C67.0818 8.01781 66.8766 6.0867 66.774 5.35336L66.6201 4.00892L64.1318 3.93559C61.9256 3.86225 61.6434 3.91114 61.5408 4.30225C61.156 5.6467 60.8482 7.06448 60.7199 8.09114C60.4378 10.12 59.5143 10.1689 59.2321 8.16448C59.0012 6.60003 58.5395 4.3267 58.3855 4.08225C58.3086 3.96003 57.1798 3.8867 55.8972 3.8867H53.5371L53.1524 5.50003ZM70.2628 4.42448C69.7754 4.88892 69.7241 5.15781 69.801 7.45559C69.878 9.70448 69.955 10.0467 70.4424 10.4867C70.7502 10.7556 71.0837 11 71.1863 11C71.2889 11 71.802 11.3178 72.315 11.7334C72.8281 12.1489 73.3668 12.4667 73.4437 12.4667C73.5464 12.4667 73.7516 12.5889 73.9312 12.7111C74.1107 12.8578 74.5212 13.1511 74.8547 13.3956C75.3421 13.7378 75.4447 13.9823 75.2908 14.4956L75.1625 15.1556H72.5203C71.058 15.1556 69.8267 15.2045 69.7754 15.2534C69.7241 15.3023 69.6984 15.9623 69.7497 16.72L69.8267 18.0889H74.1107C76.4708 18.0889 78.6513 18.0156 78.9591 17.9423C79.5235 17.7956 79.5235 17.6978 79.5235 14.7645V11.7334L77.933 10.6334C77.0608 10.0223 76.1886 9.43559 76.009 9.28892C75.8295 9.1667 75.5986 9.04448 75.496 9.04448C75.0342 9.02003 74.1107 8.04225 74.1877 7.65114C74.2646 7.28448 74.5981 7.21114 76.5477 7.13781C79.2156 7.06448 79.4978 6.86892 79.4978 5.06003V3.8867H75.1368C71.0837 3.91114 70.7759 3.93559 70.2628 4.42448ZM81.8322 10.9756V18.0645H84.0127H86.1932V15.2778V12.4667H87.4759H88.7585V15.2778V18.0889H90.939H93.1195L93.0425 11.0489L92.9656 4.03336L90.862 3.96003L88.7585 3.8867L88.6815 6.5267L88.6046 9.1667H87.4759H86.3215L86.1932 6.60003L86.0649 4.03336L83.9614 3.96003L81.8579 3.8867V10.9756H81.8322ZM95.6078 4.08225C95.5052 4.18003 95.4282 7.11336 95.4282 10.6334C95.4282 16.7445 95.4539 17.0378 95.9669 17.5756C96.48 18.1134 96.6083 18.1134 101.662 18.04L106.844 17.9667V11V4.03336L104.74 3.96003L102.637 3.8867V9.36225C102.637 15.3023 102.662 15.1311 101.226 15.1311C99.7892 15.1311 99.8149 15.2778 99.8149 9.36225V3.91114H97.8139C96.6852 3.91114 95.6848 3.98448 95.6078 4.08225ZM109.46 4.08225C109.358 4.18003 109.281 7.35781 109.281 11.1711V18.0889H114.488C120.901 18.0889 120.568 18.2845 120.568 14.7156C120.568 12.3445 120.542 12.2223 119.901 11.7334C119.542 11.4645 119.054 11.22 118.849 11.22C118.285 11.22 118.567 10.3889 119.157 10.2911C120.363 10.0711 120.568 9.58225 120.568 7.04003C120.568 3.76448 120.799 3.8867 114.514 3.8867C111.82 3.91114 109.537 3.98448 109.46 4.08225ZM130.316 4.08225C129.367 4.42448 129.316 4.88892 129.29 11C129.29 16.0356 129.341 17.0867 129.675 17.5511C130.06 18.0889 130.213 18.0889 134.805 18.0889C139.192 18.0889 139.577 18.0645 140.039 17.6C140.526 17.1356 140.552 16.7934 140.552 11C140.552 5.2067 140.526 4.86448 140.039 4.40003C139.551 3.93559 139.192 3.91114 135.113 3.93559C132.702 3.93559 130.521 4.00892 130.316 4.08225ZM143.143 10.9756V18.0889H145.323H147.503V15.8889V13.6889H148.247C148.863 13.6889 149.043 13.8356 149.274 14.4467C149.427 14.8623 149.556 15.4489 149.556 15.7423C149.556 16.0356 149.658 16.3778 149.787 16.5C149.915 16.6223 150.069 17.0134 150.094 17.3311C150.171 17.9178 150.248 17.9423 152.454 18.0156L154.738 18.0889L154.609 16.9156C154.532 16.28 154.353 15.7178 154.199 15.6689C154.045 15.62 153.917 15.4 153.917 15.18C153.917 14.96 153.737 14.4467 153.532 14.08C153.019 13.1511 153.045 12.9311 153.788 12.2467C154.404 11.6845 154.43 11.5623 154.43 8.33559C154.43 5.74448 154.327 4.88892 154.045 4.52225C153.686 4.05781 153.301 4.03336 148.401 3.96003L143.143 3.8867V10.9756ZM157.303 4.27781C156.739 4.64448 156.739 4.71781 156.739 10.9511C156.739 16.7445 156.764 17.2823 157.2 17.6489C157.611 17.9911 158.355 18.0645 162.331 18.0645H167V14.0556V10.0223H165.614C163.511 10.0223 163.537 10.0223 163.639 12.1245C163.767 14.9111 163.665 15.1556 162.254 15.1556H161.099V11.1223V7.08892H164.05H167V5.50003V3.91114H162.433C158.739 3.91114 157.765 3.98448 157.303 4.27781ZM116.156 8.11559L116.079 9.14225H114.924C113.847 9.14225 113.77 9.09336 113.693 8.45781C113.565 7.30892 113.77 7.06448 115.078 7.06448H116.258L116.156 8.11559ZM136.242 10.9756C136.242 13.0534 136.139 14.8378 136.011 14.96C135.883 15.0823 135.318 15.1556 134.78 15.1067L133.779 15.0334L133.702 11.0489L133.651 7.06448L134.959 7.13781L136.268 7.21114L136.242 10.9756ZM150.017 8.7267L150.094 10.2423H148.812H147.529V8.82448C147.529 8.04225 147.606 7.30892 147.709 7.23559C147.811 7.13781 148.35 7.08892 148.94 7.13781L149.966 7.21114L150.017 8.7267ZM116.156 13.7378L116.079 15.0089H114.924H113.77L113.693 13.7378L113.616 12.4667H114.924H116.233L116.156 13.7378ZM122.877 16.6223V18.0889L124.826 18.0156L126.776 17.9423L126.827 16.5245L126.879 15.1067H124.878H122.877V16.6223Z" fill="white"/>
</g>
<defs>
<linearGradient id="paint0_linear_507_44" x1="0.616487" y1="9.81263" x2="33.9649" y2="9.81263" gradientUnits="userSpaceOnUse">
<stop offset="6.92613e-08" stop-color="white"/>
<stop offset="1" stop-color="white"/>
</linearGradient>
<clipPath id="clip0_507_44">
<rect width="167" height="22" fill="white"/>
</clipPath>
</defs>
</svg>
